<?xml version="1.0" encoding="UTF-8" standalone="no"?>
<!-- Created with Inkscape (http://www.inkscape.org/) -->

<svg
   version="1.1"
   id="svg2"
   xml:space="preserve"
   width="2666.6667"
   height="666.66669"
   viewBox="0 0 2666.6667 666.66669"
   sodipodi:docname="Nri logo animation.ai"
   xmlns:inkscape="http://www.inkscape.org/namespaces/inkscape"
   xmlns:sodipodi="http://sodipodi.sourceforge.net/DTD/sodipodi-0.dtd"
   xmlns="http://www.w3.org/2000/svg"
   xmlns:svg="http://www.w3.org/2000/svg"><defs
     id="defs6"><linearGradient
       x1="0"
       y1="0"
       x2="1"
       y2="0"
       gradientUnits="userSpaceOnUse"
       gradientTransform="matrix(0,224.95857,224.95857,0,747.53425,128.55878)"
       spreadMethod="pad"
       id="linearGradient26"><stop
         style="stop-opacity:1;stop-color:#0f89ca"
         offset="0"
         id="stop22" /><stop
         style="stop-opacity:1;stop-color:#2ebebe"
         offset="1"
         id="stop24" /></linearGradient><linearGradient
       x1="0"
       y1="0"
       x2="1"
       y2="0"
       gradientUnits="userSpaceOnUse"
       gradientTransform="matrix(0,228.35527,228.35527,0,142.28123,123.98307)"
       spreadMethod="pad"
       id="linearGradient46"><stop
         style="stop-opacity:1;stop-color:#0f89ca"
         offset="0"
         id="stop42" /><stop
         style="stop-opacity:1;stop-color:#2ebebe"
         offset="1"
         id="stop44" /></linearGradient><linearGradient
       x1="0"
       y1="0"
       x2="1"
       y2="0"
       gradientUnits="userSpaceOnUse"
       gradientTransform="matrix(0,224.04023,224.04023,0,1208.8479,128.73923)"
       spreadMethod="pad"
       id="linearGradient66"><stop
         style="stop-opacity:1;stop-color:#0f89ca"
         offset="0"
         id="stop62" /><stop
         style="stop-opacity:1;stop-color:#2ebebe"
         offset="1"
         id="stop64" /></linearGradient><linearGradient
       x1="0"
       y1="0"
       x2="1"
       y2="0"
       gradientUnits="userSpaceOnUse"
       gradientTransform="matrix(0,228.51085,228.51085,0,301.13735,122.46964)"
       spreadMethod="pad"
       id="linearGradient86"><stop
         style="stop-opacity:1;stop-color:#0f89ca"
         offset="0"
         id="stop82" /><stop
         style="stop-opacity:1;stop-color:#2ebebe"
         offset="1"
         id="stop84" /></linearGradient><linearGradient
       x1="0"
       y1="0"
       x2="1"
       y2="0"
       gradientUnits="userSpaceOnUse"
       gradientTransform="matrix(0,224.3465,224.3465,0,414.79461,122.76996)"
       spreadMethod="pad"
       id="linearGradient106"><stop
         style="stop-opacity:1;stop-color:#0f89ca"
         offset="0"
         id="stop102" /><stop
         style="stop-opacity:1;stop-color:#2ebebe"
         offset="1"
         id="stop104" /></linearGradient><linearGradient
       x1="0"
       y1="0"
       x2="1"
       y2="0"
       gradientUnits="userSpaceOnUse"
       gradientTransform="matrix(0,218.68874,218.68874,0,613.95929,128.55878)"
       spreadMethod="pad"
       id="linearGradient126"><stop
         style="stop-opacity:1;stop-color:#0f89ca"
         offset="0"
         id="stop122" /><stop
         style="stop-opacity:1;stop-color:#2ebebe"
         offset="1"
         id="stop124" /></linearGradient><linearGradient
       x1="0"
       y1="0"
       x2="1"
       y2="0"
       gradientUnits="userSpaceOnUse"
       gradientTransform="matrix(0,225.01618,225.01618,0,1020.0122,122.22885)"
       spreadMethod="pad"
       id="linearGradient146"><stop
         style="stop-opacity:1;stop-color:#0f89ca"
         offset="0"
         id="stop142" /><stop
         style="stop-opacity:1;stop-color:#2ebebe"
         offset="1"
         id="stop144" /></linearGradient><linearGradient
       x1="0"
       y1="0"
       x2="1"
       y2="0"
       gradientUnits="userSpaceOnUse"
       gradientTransform="matrix(0,26.757629,26.757629,0,456.13058,293.34602)"
       spreadMethod="pad"
       id="linearGradient166"><stop
         style="stop-opacity:1;stop-color:#0f89ca"
         offset="0"
         id="stop162" /><stop
         style="stop-opacity:1;stop-color:#2ebebe"
         offset="1"
         id="stop164" /></linearGradient><linearGradient
       x1="0"
       y1="0"
       x2="1"
       y2="0"
       gradientUnits="userSpaceOnUse"
       gradientTransform="matrix(0,87.475505,87.475505,0,374.78499,192.879)"
       spreadMethod="pad"
       id="linearGradient186"><stop
         style="stop-opacity:1;stop-color:#0f89ca"
         offset="0"
         id="stop182" /><stop
         style="stop-opacity:1;stop-color:#2ebebe"
         offset="1"
         id="stop184" /></linearGradient></defs><sodipodi:namedview
     id="namedview4"
     pagecolor="#ffffff"
     bordercolor="#666666"
     borderopacity="1.0"
     inkscape:pageshadow="2"
     inkscape:pageopacity="0.0"
     inkscape:pagecheckerboard="0" /><g
     id="g8"
     inkscape:groupmode="layer"
     inkscape:label="Nri logo animation"
     transform="matrix(1.3333333,0,0,-1.3333333,0,666.66667)"><g
       id="g10"><g
         id="g12"><g
           id="g18"><g
             id="g20"><path
               d="m 1223.298,347.762 c -12.993,-6.432 -24.442,-20.711 -31.517,-39.107 v 0 c -2.187,-5.66 -7.461,-27.014 -12.35,-50.298 v 0 c -4.631,-22.255 -8.876,-41.808 -9.39,-43.48 v 0 c -0.773,-2.445 -2.574,1.672 -8.362,20.582 v 0 c -3.988,12.992 -13.894,44.767 -21.87,70.495 v 0 c -7.974,25.857 -15.05,47.083 -15.693,47.339 v 0 c -0.772,0.129 -4.502,-1.029 -8.49,-2.701 v 0 c -8.491,-3.473 -12.993,-6.432 -19.425,-13.25 v 0 c -11.706,-12.349 -17.495,-26.243 -34.604,-83.616 v 0 c -6.561,-22.126 -12.221,-40.265 -12.607,-40.265 v 0 c -0.515,0 -6.818,28.816 -14.151,64.063 v 0 c -7.204,35.119 -14.021,65.221 -15.051,66.893 v 0 c -1.929,2.831 -2.187,2.831 -23.927,2.573 v 0 c -18.524,-0.386 -22.126,-0.772 -23.283,-2.444 v 0 c -0.901,-1.543 5.274,-29.716 23.54,-106.128 v 0 c 13.636,-57.245 25.6,-105.357 26.501,-107.029 v 0 c 1.801,-2.702 2.572,-2.83 21.74,-2.83 v 0 c 21.74,0 22.512,0.257 24.956,7.976 v 0 c 0.643,2.315 9.777,32.03 20.196,65.992 v 0 c 10.292,33.961 19.167,62.133 19.682,62.648 v 0 c 0.386,0.515 9.648,-28.815 20.583,-64.964 v 0 c 10.806,-36.276 20.582,-67.15 21.483,-68.693 v 0 c 1.801,-2.831 2.572,-2.959 21.483,-2.959 v 0 c 13.764,0 20.325,0.515 21.868,1.672 v 0 c 1.416,1.029 9.906,34.604 28.302,112.175 v 0 l 26.113,110.631 -2.958,0.385 c -0.475,0.064 -1.01,0.095 -1.593,0.095 v 0 c -5.265,0 -14.575,-2.513 -21.176,-5.755"
               style="fill:url(#linearGradient26);stroke:none"
               id="path28" /></g></g></g></g><g
       id="g30"><g
         id="g32"><g
           id="g38"><g
             id="g40"><path
               d="m 391.894,350.464 c -5.789,-2.445 -13.507,-10.549 -17.109,-18.01 v 0 l -3.216,-6.432 -0.643,-100.726 c -0.386,-55.444 -0.386,-100.983 0,-101.24 v 0 c 1.415,-0.771 20.325,4.76 27.657,8.233 v 0 c 10.549,4.889 16.466,10.292 19.811,18.268 v 0 c 5.403,12.606 6.561,23.283 6.561,63.934 v 0 l 0.128,38.206 9.906,-10.935 c 5.403,-6.046 12.349,-13.507 15.308,-16.722 v 0 l 5.403,-5.789 2.187,5.145 c 3.601,8.362 3.73,18.01 0.514,28.815 v 0 c -3.474,11.449 -2.959,21.226 2.059,34.991 v 0 c 3.216,9.004 3.216,9.133 0.771,11.835 v 0 c -1.286,1.543 -8.104,9.519 -14.922,17.623 v 0 c -17.495,20.582 -26.243,29.459 -31.903,32.289 v 0 c -3.022,1.58 -7.513,2.39 -11.962,2.39 v 0 c -3.883,0 -7.732,-0.616 -10.55,-1.875"
               style="fill:url(#linearGradient46);stroke:none"
               id="path48" /></g></g></g></g><g
       id="g50"><g
         id="g52"><g
           id="g58"><g
             id="g60"><path
               d="m 1636.619,352.007 c -27.272,-2.058 -51.327,-14.15 -68.823,-34.604 v 0 c -3.216,-3.731 -10.806,-14.793 -16.852,-24.441 v 0 c -6.045,-9.777 -11.32,-17.753 -11.706,-17.753 v 0 c -0.514,0.129 -6.046,8.49 -12.478,18.781 v 0 c -13.507,21.869 -22.898,32.804 -35.634,41.165 v 0 c -15.437,10.292 -36.533,17.238 -52.485,17.238 v 0 c -5.789,0 -6.432,-0.257 -5.274,-2.187 v 0 c 0.643,-1.286 19.167,-28.043 41.165,-59.56 v 0 l 40.007,-57.245 v -48.884 c 0,-36.791 0.386,-49.655 1.672,-52.099 v 0 c 1.672,-3.216 1.672,-3.216 22.641,-3.602 v 0 c 14.408,-0.257 21.611,0.129 22.769,1.158 v 0 c 1.544,1.158 1.801,10.548 1.801,51.971 v 0 50.427 l 34.862,50.041 c 19.167,27.529 38.077,54.672 42.065,60.203 v 0 l 7.204,10.163 z"
               style="fill:url(#linearGradient66);stroke:none"
               id="path68" /></g></g></g></g><g
       id="g70"><g
         id="g72"><g
           id="g78"><g
             id="g80"><path
               d="m 619.588,350.978 c -1.287,0 -6.69,-1.286 -11.964,-2.959 v 0 C 588.071,341.973 579.966,336.57 574.95,326.408 v 0 c -6.175,-12.736 -7.205,-22.126 -7.205,-64.191 v 0 c 0,-21.098 -0.386,-38.464 -0.9,-38.336 v 0 c -0.643,0 -7.332,7.205 -15.179,15.952 v 0 c -7.719,8.748 -14.408,15.694 -14.923,15.308 v 0 c -1.93,-1.157 -5.017,-12.864 -5.017,-19.167 v 0 c 0,-3.602 1.158,-10.034 2.701,-14.151 v 0 c 3.217,-9.133 2.702,-20.067 -1.415,-32.288 v 0 c -1.543,-4.117 -2.958,-8.491 -3.344,-9.648 v 0 c -1.03,-2.96 39.107,-49.013 46.31,-53.258 v 0 c 2.96,-1.801 8.105,-3.602 11.192,-3.988 v 0 c 11.577,-1.543 24.828,7.461 31.26,21.226 v 0 c 2.701,5.917 2.701,6.818 3.087,106.643 v 0 c 0.255,94.482 0.258,100.47 -1.855,100.47 v 0 c -0.007,0 -0.013,10e-4 -0.02,10e-4 v 0 c -0.018,0 -0.036,-10e-4 -0.054,-0.003"
               style="fill:url(#linearGradient86);stroke:none"
               id="path88" /></g></g></g></g><g
       id="g90"><g
         id="g92"><g
           id="g98"><g
             id="g100"><path
               d="m 640.942,345.19 c -1.539,-1.924 -1.799,-18.172 -1.801,-111.48 v 0 -110.94 l 4.502,0.386 c 7.205,0.515 19.682,7.332 26.243,14.407 v 0 c 12.221,13.122 17.495,30.875 17.495,59.304 v 0 c 0,9.133 0.515,16.594 1.158,16.594 v 0 c 0.514,0 13.378,-17.495 28.43,-38.849 v 0 c 15.05,-21.483 28.815,-40.522 30.616,-42.452 v 0 l 3.344,-3.601 h 25.986 c 21.354,0 26.242,0.386 27.529,1.929 v 0 c 0.9,1.03 1.286,2.573 0.9,3.473 v 0 c -1.157,3.088 -27.014,38.978 -33.318,46.311 v 0 c -11.191,12.993 -27.528,24.571 -42.451,29.973 v 0 l -7.59,2.702 13.25,2.187 c 29.073,4.759 46.825,19.039 53.129,42.837 v 0 c 2.831,10.291 2.831,32.16 0,42.966 v 0 c -5.789,22.641 -20.711,36.791 -45.796,43.223 v 0 c -6.689,1.801 -16.723,2.316 -54.029,2.702 v 0 c -12.921,0.157 -22.226,0.254 -28.965,0.254 v 0 c -15.269,0 -17.383,-0.498 -18.632,-1.926 m 46.439,-68.695 v 28.301 h 16.467 c 11.705,0 18.266,-0.643 22.511,-2.059 v 0 c 17.238,-5.916 22.383,-32.159 8.748,-45.666 v 0 c -6.561,-6.69 -15.051,-8.876 -33.19,-8.876 v 0 h -14.536 z"
               style="fill:url(#linearGradient106);stroke:none"
               id="path108" /></g></g></g></g><g
       id="g110"><g
         id="g112"><g
           id="g118"><g
             id="g120"><path
               d="m 834.288,345.703 c -1.028,-1.028 -1.543,-7.461 -1.543,-20.324 v 0 c 0,-12.865 0.515,-19.296 1.543,-20.326 v 0 c 1.159,-1.157 10.034,-1.543 32.29,-1.543 v 0 h 30.745 l -8.105,-5.403 c -10.034,-6.818 -16.723,-16.209 -21.354,-29.974 v 0 c -3.473,-10.29 -3.473,-10.548 -3.988,-52.999 v 0 l -0.386,-42.837 h -13.894 c -9.004,0 -14.278,-0.515 -15.308,-1.544 v 0 c -2.187,-2.188 -2.187,-38.464 0,-40.651 v 0 c 1.159,-1.157 14.795,-1.543 53.258,-1.543 v 0 c 45.409,0 52.099,0.257 53.771,2.058 v 0 c 1.672,1.543 2.058,5.274 2.058,19.811 v 0 c 0,22.511 0.515,21.869 -17.495,21.869 v 0 h -13.378 v 65.606 65.607 h 13.378 c 18.01,0 17.495,-0.644 17.495,21.869 v 0 c 0,14.536 -0.386,18.266 -2.058,19.811 v 0 c -1.672,1.8 -8.362,2.058 -53.771,2.058 v 0 c -38.463,0 -52.099,-0.386 -53.258,-1.545"
               style="fill:url(#linearGradient126);stroke:none"
               id="path128" /></g></g></g></g><g
       id="g130"><g
         id="g132"><g
           id="g138"><g
             id="g140"><path
               d="m 1330.197,345.703 c -1.929,-1.543 -86.189,-222.29 -85.16,-223.319 v 0 c 1.029,-1.158 18.01,4.374 27.658,9.005 v 0 c 9.005,4.245 12.864,7.204 21.869,16.337 v 0 c 13.379,13.507 20.969,26.243 28.944,48.369 v 0 c 0.9,2.573 0.9,2.573 2.315,0.128 v 0 c 3.602,-6.046 11.964,-13.892 18.139,-16.851 v 0 c 8.491,-4.117 22.126,-7.075 33.575,-7.075 v 0 h 9.134 l 6.174,-19.94 c 3.473,-10.934 7.333,-20.839 8.49,-21.869 v 0 c 3.345,-2.958 46.054,-2.315 47.984,0.772 v 0 c 1.028,1.544 -7.719,26.243 -36.405,102.269 v 0 c -40.266,107.544 -41.68,111.146 -44.125,112.689 v 0 c -1.147,0.71 -7.846,1.026 -15.356,1.026 v 0 c -10.17,0 -21.83,-0.578 -23.236,-1.541 m 20.069,-133.271 -21.87,0.386 10.421,34.347 c 5.788,19.039 10.676,34.476 11.062,34.476 v 0 c 0.387,0 5.789,-15.437 11.835,-34.347 v 0 c 6.175,-18.91 10.934,-34.604 10.806,-34.862 v 0 c -0.129,-0.064 -2.702,-0.096 -6.738,-0.096 v 0 c -4.035,0 -9.535,0.032 -15.516,0.096"
               style="fill:url(#linearGradient146);stroke:none"
               id="path148" /></g></g></g></g><g
       id="g150"><g
         id="g152"><g
           id="g158"><g
             id="g160"><path
               d="m 489.789,318.818 c -1.415,-0.772 -3.602,-2.959 -4.759,-5.017 v 0 c -5.66,-9.39 0.515,-20.583 11.32,-20.454 v 0 c 10.292,0 16.466,10.163 11.964,19.811 v 0 c -1.935,4.33 -7.237,6.946 -12.501,6.946 v 0 c -2.085,0 -4.163,-0.411 -6.024,-1.286"
               style="fill:url(#linearGradient166);stroke:none"
               id="path168" /></g></g></g></g><g
       id="g170"><g
         id="g172"><g
           id="g178"><g
             id="g180"><path
               d="m 492.62,279.326 c -0.258,-0.515 -1.801,-7.976 -3.216,-16.467 v 0 c -2.573,-15.694 -9.777,-37.306 -13.765,-41.808 v 0 c -2.702,-3.087 -10.806,-3.473 -10.806,-0.514 v 0 c 0,1.029 -0.514,1.929 -1.286,1.929 v 0 c -0.772,0 -1.286,-5.788 -1.286,-14.794 v 0 c 0,-9.004 0.514,-14.793 1.286,-14.793 v 0 c 0.772,0 1.286,0.515 1.286,1.157 v 0 c 0,0.644 5.275,1.416 11.706,1.674 v 0 c 11.835,0.385 11.835,0.385 15.823,5.145 v 0 l 3.988,4.631 3.988,-4.631 c 4.116,-4.76 4.116,-4.76 15.823,-5.145 v 0 c 6.432,-0.258 11.706,-1.03 11.706,-1.674 v 0 c 0,-0.642 0.644,-1.157 1.286,-1.157 v 0 c 0.772,0 1.287,5.531 1.287,14.151 v 0 c 0,12.863 -1.158,17.237 -3.088,12.22 v 0 c -0.9,-2.444 -6.689,-1.415 -10.163,1.801 v 0 c -3.987,3.86 -11.32,25.728 -14.021,41.808 v 0 c -1.287,8.491 -2.83,15.952 -3.087,16.467 v 0 c -0.386,0.514 -2.059,1.028 -3.731,1.028 v 0 c -1.672,0 -3.344,-0.514 -3.73,-1.028"
               style="fill:url(#linearGradient186);stroke:none"
               id="path188" /></g></g></g></g></g></svg>
